<svg xmlns="http://www.w3.org/2000/svg" version="1.1" xmlns:xlink="http://www.w3.org/1999/xlink" width="512" height="512" x="0" y="0" viewBox="0 0 468.301 468.301" style="enable-background:new 0 0 512 512" xml:space="preserve" class=""><g><path fill="#d7d7fd" d="m311.253 200.86-9.597 6.083c64.067 56.335 38.507 96.58 38.507 96.58l9.178 5.272c-.001-.001 31.076-41.349-38.088-107.935z" opacity="1" data-original="#d7d7fd" class=""></path><path fill="#e9e9fd" d="M285.6 147.062s29.43 23.62 44.103 52.8-9.023 41.811-41.164 6.869-58.163-96.886-2.939-59.669zM250.941 88.56c-2.624 3.135-124.908 149.229-132.41 158.2-7.886 3.665-16.352 6.874-24.86 8.82h-.01c-58.55 13.38-64.22-45.97-44.88-63.33 21.8-19.55 41.1-43.84 21.18-74.05-19.93-30.22-45.47-99.82 7.62-111.62 3.22-.71 6.3-1.19 9.24-1.46 32.14-3.04 48.23 17.87 48.23 17.87 7.15-4.61 14.76-6.72 21.94-7.4 17.01-1.62 31.56 4.78 31.56 4.78 42.19-25.49 70.77-24.77 80.29 4.29 11.47 35.049-17.9 63.9-17.9 63.9z" opacity="1" data-original="#e9e9fd" class=""></path><path fill="#d7d7fd" d="m238.151 84.83-35.69 61.65-80.61 96.31c-9.442 6.082-31.555 19.582-33.7 8.63-4-20.46 60.97-81.09 5.45-157.17-42.75-58.58-19.66-81.63-6.78-89.13 32.14-3.04 48.23 17.87 48.23 17.87 7.15-4.61 14.76-6.72 21.94-7.4-47.784 46.618 14.31 68.963 31.56 37.24 17.39-32 60.93-55.67 61.6-27.95s-12 59.95-12 59.95z" opacity="1" data-original="#d7d7fd" class=""></path><path fill="#b1affb" d="M121.471 36.133s-13.694 36.125 12.006 50.069c0 0-19.178 18.506-33.984-3.43-17.206-25.49 7.343-42.788 21.978-46.639z" opacity="1" data-original="#b1affb" class=""></path><path fill="#7d7cfa" d="m236.072 215.845-114.58.268s-82.687 19.449-64.693 123.575l220.163-53.2c-3.832-44.076-40.89-70.643-40.89-70.643z" opacity="1" data-original="#7d7cfa" class=""></path><ellipse cx="179.804" cy="210.16" fill="#7777fa" rx="61.75" ry="24" opacity="1" data-original="#7777fa" class=""></ellipse><path fill="#c7c5fc" d="M211.371 162.189c1.107 13.421 4.561 34.347 9.81 47.11-15.83 7.07-32.63 8.03-47.21 6.58-16.85-1.67-30.73-6.55-36.74-8.94 3.31-6.08 15.54-31.39 14.39-72.19-4.86 1.52-11.07 1.14-18.14-4.42-17.364-13.679-9.046-62.908 27.28-46.46 0 0 3.46 1.27 6.56 3.48 25.971-4.226 47.035-20.565 58.26-41.65 54.94 53.651 12.45 110.961-14.21 116.49z" opacity="1" data-original="#c7c5fc" class=""></path><path fill="#bcbafc" d="M217.221 197.08c-17.53-14.82-29-36.93-29-36.93 6.736 2.104 16.152 3.507 23.14 2.03.104.102 1.287 17.431 5.86 34.9zM173.971 215.879c-16.85-1.67-30.73-6.55-36.74-8.94 3.31-6.08 15.54-31.39 14.39-72.19-4.86 1.52-11.07 1.14-18.14-4.42-17.364-13.679-9.046-62.908 27.28-46.46 0 0 3.46 1.27 6.56 3.48a82.22 82.22 0 0 0 13.77-3.48c-7.36 23.38-20.93 78.271-7.12 132.01z" opacity="1" data-original="#bcbafc" class=""></path><path fill="#b2affb" d="m142.566 94.251 10.469 26.554c13.067-19.915-10.469-26.554-10.469-26.554z" opacity="1" data-original="#b2affb"></path><path fill="#9493fb" d="M466.151 251.419v74.12l-106.61 115.74H30.581l-28.43-23.35c2.506-4.057 93.325-151.446 94.8-153.84z" opacity="1" data-original="#9493fb" class=""></path><path fill="#a6a4fb" d="M466.151 251.419v74.121l-355.36 7.11-80.21 108.63-26.83-25.94 93.2-151.25z" opacity="1" data-original="#a6a4fb" class=""></path><path fill="#a6a4fb" d="m374.771 357.02-4 109.27H90.431l-1.98-41.25 39.6-59.89c.097-.1-1.945.054 246.72-8.13z" opacity="1" data-original="#a6a4fb" class=""></path><g fill="#9e9dfb"><path d="M134.171 466.29h-43.74l-1.98-41.25 39.6-59.89zM110.791 332.65l-80.21 108.63-26.83-25.94 93.2-151.25z" fill="#9e9dfb" opacity="1" data-original="#9e9dfb" class=""></path></g><g fill="#3a00d9"><path d="M143.109 92.327a2 2 0 0 0-1.089 3.849c.097.028 9.727 2.848 12.319 9.815 1.446 3.888.444 8.503-2.977 13.718-.877 1.335.097 3.097 1.67 3.097.651 0 1.29-.317 1.674-.903 4.164-6.346 5.298-12.175 3.374-17.326-3.314-8.871-14.497-12.117-14.971-12.25z" fill="#3a00d9" opacity="1" data-original="#3a00d9" class=""></path><path d="m466.082 249.42-114.04 3.914c-4.01-9.772-9.945-19.804-17.672-29.862 3.066-5.707 2.137-14.532-2.88-24.507-14.7-29.233-43.423-52.486-44.638-53.462a1.851 1.851 0 0 0-.134-.099c-17.438-11.754-28.255-14.743-33.069-9.145-9.481 11.029 13.836 50.535 33.419 71.825 13.981 15.2 25.732 21.063 34.109 21.706 6.569 8.031 11.732 16.113 15.385 24.075l-65.765 2.257c-8.993-19.526-22.771-32.916-29.643-38.77 1.552-2.277 2.397-4.687 2.397-7.192 0-8.609-9.517-16.271-26.158-21.119-2.298-10.935-3.474-21.344-3.873-25.32 13.935-3.913 31.488-20.578 38.091-43.162 2.168-7.415 3.909-18.395 1.429-31.3 4.452-4.774 28.409-32.501 17.701-65.222-3.664-11.185-10.128-18.564-19.212-21.936-14.889-5.529-36.131-.132-63.146 16.035-5.335-2.114-30.762-10.977-52.948 2.261-4.875-5.237-24.542-23.27-58.289-15.77-14.76 3.28-24.743 11.117-29.669 23.292C36.47 55.12 53.894 97.47 68.291 119.3c19.267 29.22.274 52.521-20.846 71.461-17.155 15.391-15.277 58.642 17.643 67.227-11.219 19.831-15.123 44.231-11.615 72.843L.448 416.88a2 2 0 0 0 .433 2.595l28.43 23.351a2 2 0 0 0 1.27.454h56.742l1.105 23.106c.053 1.103.974 1.911 2.093 1.902a2 2 0 0 0 1.902-2.094l-1.942-40.602 35.935-54.346 5.76 95.175a2.001 2.001 0 0 0 3.994-.242l-5.998-99.108 242.521-7.984-3.921 107.134a2 2 0 1 0 3.997.146l1.391-38.002 93.463-101.47c.34-.37.529-.854.529-1.355v-74.12c-.001-1.144-.967-2.053-2.07-2zm-176.07-44.043c-10.518-11.436-20.784-26.286-27.462-39.728-7.802-15.704-8.147-24.132-5.868-26.783.523-.608 1.586-1.312 3.699-1.312 3.75 0 10.809 2.217 24.028 11.116 1.509 1.229 29.513 24.26 43.507 52.09 5.422 10.783 5.627 20.03.522 23.558-6.181 4.28-20.847.172-38.426-18.941zm36.078 24.146c2.475-.507 4.27-1.498 5.732-2.792 6.846 9.028 12.198 18.003 15.946 26.75l-6.896.237c-3.499-8.016-8.454-16.134-14.782-24.195zm-86.539-19.363c0 10.624-24.009 22-59.75 22s-59.75-11.376-59.75-22c0-6.144 7.91-12.324 20.876-16.528-1.749 4.786-3.413 8.391-4.62 10.762a45.491 45.491 0 0 1-1.433-.624 2 2 0 0 0-1.686 3.627c.048.022 1.212.562 3.305 1.393 7.34 2.926 26.669 9.656 48.894 9.656 14.503 0 28.494-2.861 41.124-9.514a2 2 0 1 0-1.866-3.539c-.79.417-1.583.812-2.376 1.193-1.507-4.024-2.789-8.512-3.87-13.051 13.129 4.212 21.152 10.446 21.152 16.625zm8.22-90.724c-6.626 22.661-24.252 38.183-36.815 40.789-6.61 1.384-15.691.025-22.139-1.981a2 2 0 1 0-1.189 3.82c8.203 2.552 16.796 3.167 21.945 2.451.685 6.841 3.198 28.282 9.028 43.695-31.118 12.946-65.768 2.467-78.563-2.339 4.47-8.901 14.369-32.941 13.612-69.716a19.143 19.143 0 0 0 1.511-.671 2 2 0 0 0-1.787-3.579c-5.245 2.614-11.631 2.377-18.66-3.15-15.698-12.366-8.593-58.372 25.217-43.067.045.021.091.039.137.056.032.012 3.246 1.199 6.089 3.229a2 2 0 0 0 1.484.346c25.947-4.236 46.458-19.751 58.395-40.337 21.043 21.5 28.759 46.432 21.735 70.454zM130.013 86.457c-2.96 2.184-8.733 5.617-15.012 4.955-5.193-.554-9.853-3.837-13.85-9.759-5.518-8.174-6.927-16.009-4.189-23.286 3.446-9.159 12.919-15.97 21.46-19.163-2.632 9.549-7.346 34.76 11.591 47.253zm53.974-65.622c-7.703 4.834-15.884 10.535-24.377 16.993a2.001 2.001 0 0 0 2.421 3.184c36.12-27.464 90.767-58.905 104.91-15.73 8.999 27.499-8.388 51.418-14.999 59.196-3.213-12.038-10.254-25.479-23.904-39.138 1.836-3.471 6.716-13.011 8.664-19.919a2 2 0 0 0-3.85-1.086c-2.387 8.462-9.857 21.931-9.036 20.416-12.099 22.337-32.719 36.444-56.029 40.49-2.855-1.898-5.755-3.03-6.268-3.224-14.471-6.527-23.614-2.568-28.563 1.545-20.853-12.945-10.744-43.517-9.703-46.472 3.696-5.102 8.027-9.281 12.882-12.417 14.102-9.11 32.221-8.894 47.852-3.838zM50.116 193.739c21.08-18.904 42.576-44.699 21.514-76.641-13.932-21.125-30.874-61.907-20.445-87.679 4.403-10.882 13.43-17.909 26.829-20.888 31.323-6.96 49.136 8.822 54.054 14.075-4.398 3.149-8.353 7.111-11.797 11.793-10.143 2.879-22.717 11.031-27.054 22.559-3.221 8.561-1.667 17.621 4.618 26.933 7.709 11.42 17.718 13.955 27.917 9.617-5.323 12.268-3.689 30.373 6.489 38.392 6.864 5.397 12.96 6.092 17.439 5.36.342 22.37-3.328 39.769-7.153 51.692-16.841 4.837-26.476 12.535-26.476 21.207 0 1.759.417 3.472 1.197 5.125-19.301 6.391-38.019 20.035-50.014 39.116-30.984-7.148-31.994-47.315-17.118-60.661zm31.168 49.076c14.796-15.567 31.745-22.03 38.224-24.058 18.689 22.431 96.824 23.358 119.067 1.654 6.452 5.496 19.205 17.869 27.872 35.861-181.753 6.237-169.945 5.597-170.773 6.295-.408.338 2.143-3.695-38.774 62.705-2.862-30.912 3.164-60.129 24.384-82.457zm382.867 81.944-89.767 97.456 2.384-65.124c.043-1.17-.931-2.122-2.064-2.072-255.085 8.398-246.458 8.123-246.715 8.123a2 2 0 0 0-1.598.893l-.002.002-.002.003c-41.816 63.474-39.99 59.858-39.931 61.091l.677 14.148H31.297L4.769 417.492l91.224-148.038 12.66 62.718-56.026 75.882a2 2 0 1 0 3.218 2.375l55.968-75.804 270.045-5.4a2 2 0 0 0-.04-4c-.1 0-105.613 2.112-269.4 5.388l-13.041-64.605 364.772-12.519v71.27z" fill="#3a00d9" opacity="1" data-original="#3a00d9" class=""></path></g></g></svg>